<svg width="40" height="40" viewBox="0 0 256 256" xmlns="http://www.w3.org/2000/svg">
  <path fill="#F7DF1E" d="M0 0h256v256H0z"></path>
  <path d="M67.2 213.1l19.4-11.8c3.7 6.5 7 12 15 12 7.7 0 12.6-3 12.6-14.6V110h24v99.7c0 24.8-14.6 36-35.8 36-19.2 0-30.4-10-35.2-22.6" fill="#000"></path>
  <path d="M144.3 210.7l19.4-11.2c5 8.2 11.5 14.2 23 14.2 9.7 0 16-4.8 16-11.5 0-8-6.4-10.9-17.2-15.6l-5.9-2.6c-17-7.2-28.3-16.3-28.3-35.4 0-17.6 13.4-31 34.4-31 14.9 0 25.6 5.2 33.3 18.8l-18.3 11.8c-4-7.2-8.3-10-15-10-6.8 0-11.1 4.3-11.1 10 0 7 4.3 9.9 14.3 14.2l5.9 2.5c20.1 8.6 31.5 17.3 31.5 36.8 0 21.1-16.6 32.6-38.8 32.6-21.8 0-35.8-10.4-42.5-24" fill="#000"></path>
</svg>
