<svg width="40" height="40" viewBox="0 0 128 128" xmlns="http://www.w3.org/2000/svg">
  <path fill="#E44D26" d="M19.9 114.2L10.6 0h106.9l-9.3 114.1L64.3 128"></path>
  <path fill="#F16529" d="M64 117.5l34.7-9.6 7.9-88.6H64"></path>
  <path fill="#EBEBEB" d="M64 52.2H44.1l-1.3-14.1H64V24.3H29.5l.3 3.5 3.3 36.9H64zm0 35.3l-.1.1-16.5-4.5-1.1-12.8H32l2.2 25.4 29.6 8.2.2-.1z"></path>
  <path fill="#FFF" d="M63.9 52.2v13.8h17.6l-1.7 19.1-15.9 4.3v14l29.6-8.2.2-2.4 3.4-38.4.3-3.5H63.9zm0-27.9v13.8h33.3l.3-3.3.6-6.6.3-3.9H63.9z"></path>
</svg>
